<?xml version="1.0" encoding="UTF-8"?>
<svg width="700pt" height="700pt" version="1.1" viewBox="0 0 700 700" xmlns="http://www.w3.org/2000/svg" xmlns:xlink="http://www.w3.org/1999/xlink">
 <defs>
  <symbol id="w" overflow="visible">
   <path d="m0.03125 0h-0.015625-0.015625v-0.015625-0.015625h0.015625 0.015625-0.015625v0.015625 0.015625h0.015625v-0.015625z"/>
  </symbol>
  <symbol id="e" overflow="visible">
   <path d="m0.015625-0.015625v0.015625h-0.015625v-0.03125h0.015625v0.015625-0.015625z"/>
  </symbol>
  <symbol id="b" overflow="visible">
   <path d="m0.03125-0.015625h-0.015625v0.015625c0.0078125 0 0.015625-0.0039062 0.015625-0.015625v0.015625h-0.015625-0.015625v-0.015625l0.015625-0.015625v0.015625h0.015625z"/>
  </symbol>
  <symbol id="a" overflow="visible">
   <path d="m0.015625-0.015625v0.015625-0.015625zm0.015625 0v0.015625h-0.015625-0.015625v-0.015625h0.015625-0.015625v-0.015625h0.015625v0.015625h0.015625z"/>
  </symbol>
  <symbol id="d" overflow="visible">
   <path d="m0.015625-0.03125v0.015625 0.015625h-0.015625v-0.015625-0.015625z"/>
  </symbol>
  <symbol id="l" overflow="visible">
   <path d="m0.015625-0.015625v-0.015625h0.015625v0.03125h-0.015625-0.015625v-0.015625l0.015625-0.015625v0.015625zm0 0.015625v-0.015625 0.015625z"/>
  </symbol>
  <symbol id="k" overflow="visible">
   <path d="m0.015625 0v-0.015625 0.015625zm0-0.015625v-0.015625c0.0078125 0 0.015625 0.0078125 0.015625 0.015625v0.015625h-0.015625-0.015625v-0.03125h0.015625z"/>
  </symbol>
  <symbol id="j" overflow="visible">
   <path d="m0-0.03125h0.015625v0.015625-0.015625h0.015625l-0.015625 0.03125v0.015625h-0.015625v-0.015625h0.015625z"/>
  </symbol>
  <symbol id="i" overflow="visible">
   <path d="m0.015625-0.03125v0.015625 0.015625h0.015625v-0.015625c0-0.0078125-0.0078125-0.015625-0.015625-0.015625zm0 0h0.015625v0.015625 0.015625h-0.015625-0.015625v-0.015625-0.015625h0.015625z"/>
  </symbol>
  <symbol id="v" overflow="visible">
   <path d="m0-0.03125h0.015625v0.03125h-0.015625z"/>
  </symbol>
  <symbol id="f" overflow="visible">
   <path d="m0.03125-0.015625v0.015625h-0.015625v-0.015625 0.015625h-0.015625v-0.03125h0.015625v0.015625-0.015625c0.0078125 0 0.015625 0.0078125 0.015625 0.015625z"/>
  </symbol>
  <symbol id="h" overflow="visible">
   <path d="m0-0.03125h0.015625 0.015625v0.015625h-0.015625v0.015625h-0.015625zm0.015625 0v0.015625-0.015625z"/>
  </symbol>
  <symbol id="g" overflow="visible">
   <path d="m0.03125-0.03125v0.015625h-0.015625c0.0078125 0 0.015625 0.0078125 0.015625 0.015625h-0.015625-0.015625 0.015625v-0.015625h-0.015625l0.015625-0.015625h0.015625z"/>
  </symbol>
  <symbol id="c" overflow="visible">
   <path d="m0.015625-0.015625v0.015625-0.015625zm0-0.015625v0.015625h0.015625c0 0.011719-0.0078125 0.015625-0.015625 0.015625h-0.015625v-0.015625l0.015625-0.015625z"/>
  </symbol>
  <symbol id="u" overflow="visible">
   <path d="m0-0.03125h0.015625v0.015625-0.015625h0.015625l-0.015625 0.03125z"/>
  </symbol>
  <symbol id="t" overflow="visible">
   <path d="m0-0.03125h0.015625v0.015625-0.015625h0.015625l-0.015625 0.015625 0.015625 0.015625h-0.015625v-0.015625 0.015625h-0.015625z"/>
  </symbol>
  <symbol id="s" overflow="visible">
   <path d="m0.015625-0.03125v0.03125h-0.015625v-0.03125h0.015625z"/>
  </symbol>
  <symbol id="r" overflow="visible">
   <path d="m0.03125-0.015625v-0.015625c0.0078125 0 0.015625 0.0078125 0.015625 0.015625v0.015625h-0.015625v-0.015625 0.015625h-0.015625v-0.015625 0.015625h-0.015625v-0.03125h0.015625v0.015625-0.015625 0.015625h0.015625z"/>
  </symbol>
  <symbol id="q" overflow="visible">
   <path d="m0.03125-0.015625v0.015625h-0.015625v-0.015625 0.015625h-0.015625v-0.03125h0.015625v0.015625-0.015625c0.0078125 0 0.015625 0.0078125 0.015625 0.015625z"/>
  </symbol>
  <symbol id="p" overflow="visible">
   <path d="m0-0.03125h0.015625l0.015625 0.015625v-0.015625 0.03125l-0.015625-0.015625v0.015625h-0.015625z"/>
  </symbol>
  <symbol id="o" overflow="visible">
   <path d="m0-0.015625v-0.015625h0.015625v0.015625 0.015625-0.015625-0.015625h0.015625v0.03125h-0.015625-0.015625v-0.015625z"/>
  </symbol>
  <symbol id="n" overflow="visible">
   <path d="m0-0.03125h0.015625v0.03125h-0.015625v0.015625zm0 0h0.015625z"/>
  </symbol>
  <symbol id="m" overflow="visible">
   <path d="m0.03125-0.03125v0.015625h-0.015625v0.015625h0.015625-0.015625-0.015625v-0.015625l0.015625-0.015625h0.015625z"/>
  </symbol>
 </defs>
 <g>
  <path d="m350 122.43h-220.29c-3.8672 0-0.90625-0.011719-1.8633-0.007813-5.6719 0.027344-10.5 0.046875-16.504-2.0469-11.402-3.9727-18.848-12.559-22.328-22.555-1.5273-4.3828-2.293-9.0117-2.293-13.613 0-4.6016 0.76562-9.2305 2.293-13.613 3.4844-9.9961 10.926-18.582 22.328-22.555 6.0078-2.0938 10.832-2.0703 16.504-2.0469 0.95703 0.003906-2.0039-0.007813 1.8633-0.007813h440.58c3.8672 0 0.90625 0.011719 1.8633 0.007813 5.6719-0.027344 10.5-0.046876 16.504 2.0469 11.402 3.9727 18.848 12.559 22.328 22.555 1.5273 4.3828 2.293 9.0117 2.293 13.613 0 4.6016-0.76562 9.2305-2.293 13.613-3.4844 9.9961-10.926 18.582-22.328 22.555-6.0078 2.0938-10.832 2.0703-16.504 2.0469-0.95703-0.003906 2.0039 0.007813-1.8633 0.007813zm-220.29-7.4648h440.58c2.5898 0-0.29297 0.011718 1.8906 0.019531 4.9766 0.023437 9.207 0.042969 14.027-1.6367 9.0547-3.1562 14.973-10 17.75-17.977 1.2344-3.5469 1.8555-7.3438 1.8555-11.164 0-3.8203-0.61719-7.6172-1.8555-11.164-2.7812-7.9766-8.6992-14.82-17.75-17.977-4.8164-1.6797-9.0508-1.6602-14.027-1.6367-2.1836 0.011718 0.69922 0.019531-1.8906 0.019531h-440.58c-2.5898 0 0.29297-0.011719-1.8906-0.019531-4.9766-0.023438-9.207-0.042969-14.027 1.6367-9.0547 3.1562-14.973 10-17.75 17.977-1.2344 3.5469-1.8555 7.3438-1.8555 11.164 0 3.8203 0.61719 7.6172 1.8555 11.164 2.7812 7.9766 8.6992 14.82 17.75 17.977 4.8164 1.6797 9.0508 1.6602 14.027 1.6367 2.1836-0.011719-0.69922-0.019531 1.8906-0.019531zm220.29 330.07h-220.29c-2.5898 0 0.29297-0.011718-1.8906-0.019531-4.9766-0.023437-9.207-0.042969-14.027 1.6367-9.0508 3.1562-14.973 10-17.75 17.977-1.2344 3.5469-1.8555 7.3438-1.8555 11.164s0.61719 7.6172 1.8555 11.164c2.7812 7.9766 8.6992 14.82 17.75 17.977 4.8164 1.6797 9.0508 1.6602 14.027 1.6367 2.1836-0.011719-0.69922-0.019531 1.8906-0.019531h440.58c2.5898 0-0.29297 0.011718 1.8906 0.019531 4.9766 0.023437 9.207 0.042969 14.027-1.6367 9.0547-3.1562 14.973-10 17.75-17.977 1.2344-3.5469 1.8555-7.3438 1.8555-11.164s-0.61719-7.6172-1.8555-11.164c-2.7812-7.9766-8.6992-14.82-17.75-17.977-4.8164-1.6797-9.0508-1.6602-14.027-1.6367-2.1836 0.011719 0.69922 0.019531-1.8906 0.019531zm-220.29-7.4648h440.58c3.8672 0 0.90625 0.011719 1.8633 0.007812 5.6719-0.027343 10.5-0.046875 16.504 2.0469 11.402 3.9727 18.848 12.559 22.328 22.555 1.5273 4.3828 2.293 9.0117 2.293 13.613s-0.76562 9.2305-2.293 13.613c-3.4844 9.9961-10.926 18.582-22.328 22.555-6.0078 2.0938-10.832 2.0703-16.504 2.0469-0.95703-0.003907 2.0039 0.007812-1.8633 0.007812h-440.58c-3.8672 0-0.90625-0.011719-1.8633-0.007812-5.6719 0.027343-10.5 0.046875-16.504-2.0469-11.402-3.9727-18.848-12.559-22.328-22.555-1.5273-4.3828-2.293-9.0117-2.293-13.613s0.76562-9.2305 2.293-13.613c3.4844-9.9961 10.926-18.582 22.328-22.555 6.0078-2.0938 10.832-2.0703 16.504-2.0469 0.95703 0.003907-2.0039-0.007812 1.8633-0.007812zm220.29-119.35h-220.29c-3.8672 0-0.90625-0.011718-1.8633-0.007812-5.6719 0.027344-10.5 0.046875-16.504-2.0469-11.402-3.9727-18.848-12.559-22.328-22.555-1.5273-4.3828-2.293-9.0117-2.293-13.613 0-4.6016 0.76562-9.2305 2.293-13.613 3.4844-9.9961 10.926-18.582 22.328-22.555 6.0078-2.0938 10.832-2.0703 16.504-2.0469 0.95703 0.003907-2.0039-0.007812 1.8633-0.007812h440.58c3.8672 0 0.90625 0.011719 1.8633 0.007812 5.6719-0.027343 10.5-0.046874 16.504 2.0469 11.402 3.9727 18.848 12.559 22.328 22.555 1.5273 4.3828 2.293 9.0117 2.293 13.613 0 4.6016-0.76562 9.2305-2.293 13.613-3.4844 9.9961-10.926 18.582-22.328 22.555-6.0078 2.0938-10.832 2.0703-16.504 2.0469-0.95703-0.003906 2.0039 0.007812-1.8633 0.007812zm-220.29-7.4648h440.58c2.5898 0-0.29297 0.011719 1.8906 0.019531 4.9766 0.023438 9.207 0.042969 14.027-1.6367 9.0547-3.1562 14.973-10 17.75-17.977 1.2344-3.5469 1.8555-7.3438 1.8555-11.164 0-3.8203-0.61719-7.6172-1.8555-11.164-2.7812-7.9766-8.6992-14.82-17.75-17.977-4.8164-1.6797-9.0508-1.6602-14.027-1.6367-2.1836 0.011719 0.69922 0.019532-1.8906 0.019532h-440.58c-2.5898 0 0.29297-0.011719-1.8906-0.019532-4.9766-0.023437-9.207-0.042968-14.027 1.6367-9.0547 3.1562-14.973 10-17.75 17.977-1.2344 3.5469-1.8555 7.3438-1.8555 11.164 0 3.8203 0.61719 7.6172 1.8555 11.164 2.7812 7.9766 8.6992 14.82 17.75 17.977 4.8164 1.6797 9.0508 1.6602 14.027 1.6367 2.1836-0.011719-0.69922-0.019531 1.8906-0.019531z"/>
  <use x="70" y="560.140625" xlink:href="#w"/>
  <use x="70.035156" y="560.140625" xlink:href="#e"/>
  <use x="70.058594" y="560.140625" xlink:href="#b"/>
  <use x="70.089844" y="560.140625" xlink:href="#a"/>
  <use x="70.121094" y="560.140625" xlink:href="#d"/>
  <use x="70.144531" y="560.140625" xlink:href="#b"/>
  <use x="70.175781" y="560.140625" xlink:href="#l"/>
  <use x="70.222656" y="560.140625" xlink:href="#k"/>
  <use x="70.257812" y="560.140625" xlink:href="#j"/>
  <use x="70.304688" y="560.140625" xlink:href="#i"/>
  <use x="70.34375" y="560.140625" xlink:href="#v"/>
  <use x="70.359375" y="560.140625" xlink:href="#b"/>
  <use x="70.390625" y="560.140625" xlink:href="#f"/>
  <use x="70.425781" y="560.140625" xlink:href="#a"/>
  <use x="70.472656" y="560.140625" xlink:href="#h"/>
  <use x="70.507812" y="560.140625" xlink:href="#a"/>
  <use x="70.539062" y="560.140625" xlink:href="#f"/>
  <use x="70.570312" y="560.140625" xlink:href="#a"/>
  <use x="70.601562" y="560.140625" xlink:href="#g"/>
  <use x="70.628906" y="560.140625" xlink:href="#c"/>
  <use x="70.664062" y="560.140625" xlink:href="#u"/>
  <use x="70.691406" y="560.140625" xlink:href="#g"/>
  <use x="70.722656" y="560.140625" xlink:href="#t"/>
  <use x="70.75" y="560.140625" xlink:href="#a"/>
  <use x="70" y="560.1875" xlink:href="#s"/>
  <use x="70.019531" y="560.1875" xlink:href="#e"/>
  <use x="70.042969" y="560.1875" xlink:href="#c"/>
  <use x="70.074219" y="560.1875" xlink:href="#r"/>
  <use x="70.140625" y="560.1875" xlink:href="#d"/>
  <use x="70.164062" y="560.1875" xlink:href="#q"/>
  <use x="70.195312" y="560.1875" xlink:href="#b"/>
  <use x="70.242188" y="560.1875" xlink:href="#p"/>
  <use x="70.28125" y="560.1875" xlink:href="#c"/>
  <use x="70.316406" y="560.1875" xlink:href="#o"/>
  <use x="70.347656" y="560.1875" xlink:href="#f"/>
  <use x="70.398438" y="560.1875" xlink:href="#h"/>
  <use x="70.433594" y="560.1875" xlink:href="#e"/>
  <use x="70.453125" y="560.1875" xlink:href="#c"/>
  <use x="70.488281" y="560.1875" xlink:href="#n"/>
  <use x="70.503906" y="560.1875" xlink:href="#b"/>
  <use x="70.535156" y="560.1875" xlink:href="#m"/>
  <use x="70.5625" y="560.1875" xlink:href="#d"/>
 </g>
</svg>
